<svg xmlns="http://www.w3.org/2000/svg" width="70" height="70" viewBox="0 0 70 70"><defs><clipPath id="bbvza"><path fill="#fff" d="M34 0h2v9h-2zm0 61h2v9h-2zM0 36v-2h9v2zm61 0v-2h9v2z"/></clipPath><clipPath id="bbvzb"><path fill="#fff" d="M17 36v-2h17V11h2v25z"/></clipPath><clipPath id="bbvzc"><path fill="#fff" d="M35.021 31.5a3.5 3.5 0 1 1 0 7 3.5 3.5 0 0 1 0-7z"/></clipPath></defs><g><g><path fill="#030303" d="M34 0h2v9h-2zm0 61h2v9h-2zM0 36v-2h9v2zm61 0v-2h9v2z"/><path fill="none" stroke="#fff" stroke-miterlimit="20" stroke-width="6" d="M34 0h2v9h-2zm0 61h2v9h-2zM0 36v-2h9v2zm61 0v-2h9v2z" clip-path="url(&quot;#bbvza&quot;)"/></g><g><path fill="#030303" d="M17 36v-2h17V11h2v25z"/><path fill="none" stroke="#fff" stroke-miterlimit="20" stroke-width="6" d="M17 36v-2h17V11h2v25z" clip-path="url(&quot;#bbvzb&quot;)"/></g><g><path fill="#030303" d="M35.021 31.5a3.5 3.5 0 1 1 0 7 3.5 3.5 0 0 1 0-7z"/><path fill="none" stroke="#fff" stroke-miterlimit="20" stroke-width="6" d="M35.021 31.5a3.5 3.5 0 1 1 0 7 3.5 3.5 0 0 1 0-7z" clip-path="url(&quot;#bbvzc&quot;)"/></g></g></svg>